<svg id="Layer_1" data-name="Layer 1" xmlns="http://www.w3.org/2000/svg" viewBox="0 0 613.32 106.92"><defs><style>.cls-1{fill:none;}.cls-2,.cls-3{fill:#e6007e;}.cls-2{fill-rule:evenodd;}</style></defs><title>hashtag_pink</title><path class="cls-1" d="M345.79-2415.92v5808h1440v-5808Z"/><path class="cls-2" d="M599.06,14C591.64,6.56,583.24,2.5,569,2.5c-22.4,0-39.06,14-39.06,35.7v.28c0,19.18,13.86,30.94,32.9,30.94a29.57,29.57,0,0,0,20.72-8C582.26,74,576.24,81.88,565,81.88c-7.84,0-14.28-2.52-21-7.84L531.3,92.8c9,7,19.6,11.62,34.16,11.62,29.4,0,45.36-21.84,45.36-53.9v-.28C610.82,32.18,606.2,21,599.06,14ZM583.94,37.22c0,7.14-5.18,12.74-13.72,12.74s-14-5.46-14-12.88V36.8c0-7.56,5.18-13.16,13.72-13.16s14,5.74,14,13.3Z"/><polygon class="cls-2" points="487.62 102.46 487.62 29.1 471.1 32.88 465.92 11.88 494.62 3.76 514.36 3.76 514.36 102.46 487.62 102.46"/><path class="cls-2" d="M418.46,104.42c-28,0-50.54-21.42-50.54-50.68v-.28c0-28.56,22-51,51.66-51,20,0,32.9,8.4,41.58,20.44L440.72,38.76c-5.6-7-12-11.48-21.42-11.48-13.72,0-23.38,11.62-23.38,25.9v.28c0,14.7,9.66,26.18,23.38,26.18,10.22,0,16.24-4.76,22.12-11.9L461.86,82.3C452.62,95,440.16,104.42,418.46,104.42Z"/><polygon class="cls-2" points="253.66 103.16 220.9 4.46 249.6 4.46 266.68 61.16 285.58 4.18 308.96 4.18 327.86 61.16 344.94 4.46 373.08 4.46 340.32 103.16 316.66 103.16 296.92 46.74 277.32 103.16 253.66 103.16"/><polygon class="cls-2" points="105.96 102.46 105.96 4.46 134.66 4.46 158.04 42.4 181.42 4.46 210.12 4.46 210.12 102.46 183.1 102.46 183.1 46.18 158.04 84.54 157.48 84.54 132.56 46.46 132.56 102.46 105.96 102.46"/><path class="cls-3" d="M93.08,45.34V22.8H82.16L85.24,4.46H64.94L61.86,22.8H44.08L47.3,4.46H27L23.92,22.8H7.12V45.34H20L17.34,61H2.5V83.56H13.42l-3.22,18.9H30.5l3.22-18.9H51.5l-3.36,18.9h20.3l3.36-18.9H88.46V61H75.58l2.66-15.68ZM55.7,61.58H36.94l2.94-16.8H58.5Z"/><path class="cls-1" d="M55.79-2415.92v5808h1440v-5808Z"/></svg>